# xmcd
#
# Track frame offsets: 
#        150
#        10765
#        43870
#        88078
#        120003
#        144328
#        167695
#        190698
#
# Disc length: 3007 seconds
#
# Revision: 18
# Processed by: cddbd v1.5.2PL0 Copyright (c) Steve Scherf et al.
# Submitted via: ExactAudioCopy v1.3
#
DISCID=580bbd08
DTITLE=Jimi Hendrix - Live At Woodstock [CD 1)
DYEAR=1999
DGENRE=Rock
TTITLE0=Introduction
TTITLE1=Message To Love
TTITLE2=Hear My Train A Comin'
TTITLE3=Spanish Castle Magic
TTITLE4=Red House
TTITLE5=Lover Man
TTITLE6=Foxey Lady
TTITLE7=Jam Back At The House
EXTD=Year: 1999\n\nAuthorised Release by the Hendrix Family\n\nRemaste
EXTD=red from the Original Tapes\n\nIncluding 5 previously unreleased 
EXTD=Tracks
EXTT0=
EXTT1=
EXTT2=
EXTT3=
EXTT4=
EXTT5=
EXTT6=
EXTT7=
PLAYORDER=
